<?xml version="1.0" standalone="no"?>
<!DOCTYPE svg PUBLIC "-//W3C//DTD SVG 20010904//EN"
 "http://www.w3.org/TR/2001/REC-SVG-20010904/DTD/svg10.dtd">
<svg version="1.0" xmlns="http://www.w3.org/2000/svg"
 width="1537.000000pt" height="512.000000pt" viewBox="0 0 1537.000000 512.000000"
 preserveAspectRatio="xMidYMid meet">

<g transform="translate(0.000000,512.000000) scale(0.100000,-0.100000)" fill="#66EAC2" stroke="none">
  <path d="M1025 5015 l-25 -24 0 -619 c0 -587 1 -621 18 -643 23 -28 73 -30
  102 -4 20 18 20 30 20 597 l0 578 575 0 576 0 24 25 c32 31 32 59 0 90 l-24
  25 -621 0 -621 0 -24 -25z"/>
  <path d="M3729 5022 c-15 -13 -22 -30 -22 -52 0 -22 7 -39 22 -52 22 -17 54
  -18 597 -18 l574 0 0 -574 c0 -543 1 -575 18 -597 26 -31 78 -31 104 0 17 22
  18 56 18 643 l0 619 -25 24 -24 25 -619 0 c-587 0 -621 -1 -643 -18z"/>
  <path d="M2850 4574 c-530 -68 -984 -383 -1219 -847 -104 -205 -157 -404 -167
  -637 -16 -332 67 -634 259 -940 11 -18 -1 -33 -124 -156 l-136 -136 -84 -2
  c-95 -2 -126 -14 -195 -78 l-44 -41 0 281 0 281 -26 20 c-35 27 -59 26 -89 -4
  l-25 -24 0 -348 0 -347 -444 -446 c-415 -417 -445 -448 -461 -499 -23 -70 -15
  -144 20 -210 34 -62 275 -301 333 -330 62 -31 127 -37 198 -16 58 16 64 21
  504 461 l446 444 346 0 c315 0 348 2 366 18 32 26 37 63 12 95 l-21 27 -281 0
  -281 0 41 44 c64 69 76 100 78 195 l2 84 136 136 c123 123 138 135 156 124
  303 -190 606 -274 935 -260 228 10 422 60 630 162 429 212 733 609 836 1091
  21 94 24 136 23 309 0 226 -15 320 -80 506 -81 233 -192 408 -373 590 -227
  226 -478 363 -790 430 -94 20 -392 34 -481 23z m465 -164 c274 -59 501 -183
  706 -389 212 -211 336 -444 396 -738 20 -100 26 -454 8 -472 -7 -7 -24 -4 -51
  8 -40 18 -41 20 -42 70 -2 66 -34 132 -88 179 -80 71 -189 83 -292 31 -50 -25
  -65 -28 -82 -19 -15 8 -19 17 -14 33 26 81 -15 210 -84 267 -74 61 -190 76
  -274 36 -37 -18 -37 -18 -72 9 -20 15 -36 29 -36 30 0 1 7 20 16 40 21 52 20
  145 -4 197 -50 113 -175 176 -294 148 -49 -12 -53 -12 -69 9 -17 21 -17 23 6
  57 13 19 29 51 36 71 15 48 6 140 -20 190 -41 82 -145 143 -242 143 -37 0 -39
  1 -54 52 -8 28 -14 52 -12 54 1 1 34 7 72 12 111 17 373 7 490 -18z m-679 -98
  l20 -69 -28 -34 c-30 -35 -58 -113 -58 -159 0 -55 31 -132 71 -175 54 -58 123
  -87 202 -84 57 2 62 1 84 -28 22 -29 23 -31 6 -64 -22 -43 -29 -146 -14 -192
  18 -55 66 -113 116 -143 58 -34 150 -43 213 -21 l44 15 38 -35 c34 -30 40 -38
  29 -59 -15 -42 -10 -145 10 -189 22 -50 70 -99 125 -128 63 -33 165 -31 229 5
  46 26 50 27 73 12 21 -15 24 -24 24 -83 0 -81 30 -151 84 -199 51 -45 98 -62
  171 -62 71 0 120 17 167 59 l33 29 55 -22 c53 -22 55 -24 52 -57 -4 -46 -79
  -228 -130 -316 -24 -40 -70 -108 -102 -152 -78 -102 -254 -271 -283 -270 -12
  0 -69 20 -127 43 l-105 42 -3 51 c-7 140 -116 243 -257 243 -59 0 -131 -24
  -165 -55 -14 -12 -22 -10 -60 15 l-45 30 3 63 c5 91 -13 142 -73 204 -84 86
  -191 104 -300 48 l-47 -23 -33 30 c-31 26 -33 32 -24 56 6 15 11 54 12 87 2
  179 -173 303 -347 245 -38 -12 -39 -12 -74 23 l-35 35 18 39 c27 55 32 153 10
  210 -41 107 -150 171 -272 160 l-64 -6 -42 67 c-24 37 -54 86 -67 109 l-23 43
  28 52 c113 211 320 422 538 550 67 39 270 128 292 128 6 0 19 -31 31 -68z
  m242 -156 c120 -62 72 -241 -60 -223 -118 16 -143 175 -35 222 41 18 62 18 95
  1z m338 -462 c42 -20 64 -59 64 -111 0 -45 -20 -77 -60 -98 -53 -28 -120 -11
  -154 37 -36 51 -10 144 48 172 40 20 60 20 102 0z m-1492 -280 l44 -66 -23
  -47 c-31 -63 -37 -109 -24 -170 25 -116 124 -202 237 -205 31 0 73 2 92 7 33
  7 37 4 72 -37 37 -44 38 -44 23 -80 -8 -19 -15 -61 -15 -93 1 -180 177 -299
  351 -237 l46 17 42 -33 c32 -26 40 -38 35 -54 -26 -81 11 -203 79 -263 77 -67
  210 -83 292 -34 45 26 45 26 100 -6 l45 -28 0 -59 c0 -81 17 -129 62 -181 53
  -60 111 -86 191 -86 74 0 119 16 168 59 l34 30 67 -27 c36 -14 69 -29 72 -32
  4 -3 -23 -21 -60 -39 -286 -140 -605 -183 -914 -121 -564 113 -1006 563 -1117
  1136 -24 127 -24 399 0 515 20 93 48 200 53 200 2 0 24 -30 48 -66z m306 -129
  c61 -32 79 -121 35 -174 -75 -88 -205 -44 -207 70 -1 91 91 146 172 104z
  m1630 0 c42 -22 60 -53 60 -106 0 -38 -6 -53 -28 -77 -73 -79 -202 -29 -202
  78 0 91 90 146 170 105z m496 -329 c29 -29 34 -41 34 -81 0 -40 -5 -52 -34
  -81 -29 -29 -41 -34 -81 -34 -40 0 -52 5 -81 34 -29 29 -34 41 -34 81 0 40 5
  52 34 81 29 29 41 34 81 34 40 0 52 -5 81 -34z m-1699 -135 c19 -10 40 -49 44
  -81 4 -42 -4 -65 -36 -97 -33 -33 -38 -35 -87 -31 -69 7 -108 47 -108 112 0
  98 95 147 187 97z m437 -365 c49 -20 76 -60 76 -113 0 -105 -137 -152 -204
  -72 -44 52 -30 149 26 176 52 26 60 26 102 9z m562 -360 c29 -29 34 -41 34
  -81 0 -40 -5 -52 -34 -81 -29 -29 -41 -34 -81 -34 -40 0 -52 5 -81 34 -29
  29 -34 41 -34 81 0 40 5 52 34 81 29 29 41 34 81 34 40 0 52 -5 81 -34z m-1563
  -396 l-123 -125 -97 98 -98 97 123 123 123 123 97 -95 98 -96 -123 -125z
  m-326 -122 c149 -148 164 -172 148 -235 -8 -34 -1064 -1096 -1107 -1114 -61
  -25 -93 -7 -236 134 -139 138 -162 174 -148 234 5 19 170 192 534 557 290 290
  541 537 557 547 17 10 48 19 69 19 37 0 47 -8 183 -142z"/>
  <path d="M4925 2315 l-25 -24 0 -576 0 -575 -578 0 c-567 0 -579 0 -597 -20
  -26 -29 -24 -79 4 -102 22 -17 56 -18 643 -18 l619 0 24 25 25 24 0 621 0 621
  -25 24 c-13 14 -33 25 -45 25 -11 0 -32 -11 -45 -25z"/>
</g>

<!-- Text for Proteolyzer with media query to change color based on mode -->
<style>
  text {
    fill: #66EAC2;
  }

  /* Light mode */
  @media (prefers-color-scheme: light) {
    text {
      fill: #66EAC2;
    }
  }
</style>

<text x="540" y="250" font-family="Courier New" font-size="120">Proteolyzer</text>

</svg>
